<?xml version="1.0" encoding="UTF-8"?>
<svg width="289px" height="80px" viewBox="0 0 289 80" version="1.1" xmlns="http://www.w3.org/2000/svg" xmlns:xlink="http://www.w3.org/1999/xlink">
    <!-- Generator: Sketch 56.3 (81716) - https://sketch.com -->
    <title>Logo</title>
    <desc>Created with Sketch.</desc>
    <g id="Version-5.1" stroke="none" stroke-width="1" fill="none" fill-rule="evenodd">
        <g id="Verhalen" transform="translate(-582.000000, -110.000000)">
            <g id="Logo" transform="translate(582.000000, 110.000000)">
                <path d="M164.388443,71.0592593 C164.388443,71.0592593 152.450608,55.0533333 133.334526,69.9896296 L124.697309,61.4296296 L123.737619,62.3807407 L132.338959,70.9081481 L123.615041,78.3985185 L124.505969,79.4177778 L133.412258,71.7674074 C141.194423,77.962963 152.680814,82.6622222 164.388443,71.0592593 M134.527412,70.7718519 C151.508856,57.4651852 162.283701,71.0207407 162.283701,71.0207407 C151.706175,80.9140741 141.21834,76.1525926 134.527412,70.7718519" id="Fill-19" fill="#9C760E"></path>
                <path d="M13.9672371,3.23259259 L11.6083711,5.10518519 C10.9865155,4.46518519 10.4214639,3.98814815 9.91321649,3.67111111 C9.40795876,3.35703704 8.67548454,3.2 7.71878351,3.2 C6.67538144,3.2 5.82630928,3.43407407 5.1745567,3.90222222 C4.52280412,4.37037037 4.19692784,4.97481481 4.19692784,5.71259259 C4.19692784,6.34962963 4.48393814,6.91555556 5.05197938,7.40444444 C5.62002062,7.8962963 6.58868041,8.43259259 7.95795876,9.0162963 C9.32723711,9.6 10.391567,10.1422222 11.1539381,10.642963 C11.9163093,11.1466667 12.5441443,11.7007407 13.0344536,12.3081481 C13.5217732,12.9155556 13.8865155,13.5555556 14.1256907,14.2311111 C14.364866,14.9037037 14.4844536,15.6177778 14.4844536,16.3674074 C14.4844536,18.1214815 13.8416701,19.6177778 12.5531134,20.8562963 C11.2645567,22.0918519 9.70692784,22.7111111 7.87723711,22.7111111 C6.09538144,22.7111111 4.51981443,22.2281481 3.15352577,21.2592593 C1.78723711,20.2933333 0.734865979,18.8444444 -0.000597938144,16.9096296 L2.91136082,16.0977778 C3.96971134,18.4740741 5.5931134,19.6622222 7.77857732,19.6622222 C8.83692784,19.6622222 9.7188866,19.3481481 10.4214639,18.72 C11.1240412,18.0918519 11.4738351,17.2977778 11.4738351,16.3407407 C11.4738351,15.7659259 11.2914639,15.1911111 10.9207423,14.6103704 C10.5530103,14.0325926 10.0955876,13.5555556 9.54847423,13.1822222 C9.00136082,12.8088889 8.13136082,12.3762963 6.93847423,11.8933333 C5.74558763,11.4074074 4.82775258,10.962963 4.18496907,10.56 C3.53919588,10.157037 2.9831134,9.67703704 2.51373196,9.12 C2.04435052,8.56296296 1.70053608,8.00592593 1.48228866,7.45481481 C1.26404124,6.9037037 1.15342268,6.31111111 1.15342268,5.68296296 C1.15342268,4.16888889 1.76630928,2.88 2.99507216,1.81333333 C4.22084536,0.74962963 5.70971134,0.216296296 7.45868041,0.216296296 C8.61868041,0.216296296 9.79661856,0.465185185 10.9895052,0.96 C12.1823918,1.45777778 13.1749691,2.2162963 13.9672371,3.23259259" id="Fill-22" fill="#9C760E"></path>
                <polygon id="Fill-26" fill="#9C760E" points="30.363299 21.9973333 33.2393814 21.9973333 33.2393814 0.877333333 30.363299 0.877333333"></polygon>
                <polygon id="Fill-27" fill="#9C760E" points="67.8465464 0.000592592593 61.2184021 15.7398519 54.5484021 0.000592592593 48.7185052 21.9976296 51.5557216 21.9976296 55.1313918 8.43911111 61.2213918 22.8124444 67.2964433 8.55762963 70.8212887 21.9976296 73.6734536 21.9976296"></polygon>
                <path d="M89.6886289,0.878518519 L93.969866,0.878518519 C96.3915155,0.878518519 98.3407938,1.44148148 99.8266701,2.57037037 C101.309557,3.6962963 102.051,5.16 102.051,6.96148148 C102.051,8.77481481 101.267701,10.2948148 99.7011031,11.5214815 C98.1345052,12.7481481 95.7547113,13.3466667 92.5647113,13.3111111 L92.5647113,21.9985185 L89.6886289,21.9985185 L89.6886289,0.878518519 Z M92.5647113,3.39703704 L92.5647113,10.7925926 C94.7501753,10.7688889 96.3705876,10.4637037 97.4259485,9.87111111 C98.4783196,9.28148148 99.0045052,8.33333333 99.0045052,7.02962963 C99.0045052,6.04592593 98.6068763,5.19555556 97.8086289,4.47555556 C97.0133711,3.75851852 95.2644021,3.39703704 92.5647113,3.39703704 L92.5647113,3.39703704 Z" id="Fill-28" fill="#9C760E"></path>
                <polygon id="Fill-30" fill="#9C760E" points="118.881464 0.877925926 118.881464 21.9979259 128.699608 21.9979259 128.699608 19.1475556 121.760536 19.1475556 121.760536 0.877925926"></polygon>
                <polygon id="Fill-31" fill="#9C760E" points="154.635773 0.877925926 149.454639 9.38162963 144.219691 0.877925926 140.999794 0.877925926 147.959794 12.3505185 147.959794 21.9979259 150.868763 21.9979259 150.868763 12.3179259 157.861649 0.877925926"></polygon>
                <polygon id="Fill-32" fill="#9C760E" points="195.055794 0.877925926 195.055794 21.9979259 197.964763 21.9979259 197.964763 11.8853333 206.865072 11.8853333 206.865072 9.03496296 197.931876 9.03496296 197.931876 3.76385185 206.865072 3.76385185 206.865072 0.877925926"></polygon>
                <polygon id="Fill-33" fill="#9C760E" points="222.576495 21.9973333 225.452577 21.9973333 225.452577 0.877333333 222.576495 0.877333333"></polygon>
                <path d="M255.483423,3.23259259 L253.124557,5.10518519 C252.502701,4.46518519 251.937649,3.98814815 251.432392,3.67111111 C250.924144,3.35703704 250.19167,3.2 249.234969,3.2 C248.191567,3.2 247.342495,3.43407407 246.690742,3.90222222 C246.03899,4.37037037 245.713113,4.97481481 245.713113,5.71259259 C245.713113,6.34962963 245.997134,6.91555556 246.568165,7.40444444 C247.136206,7.8962963 248.104866,8.43259259 249.474144,9.0162963 C250.843423,9.6 251.907753,10.1422222 252.670124,10.642963 C253.432495,11.1466667 254.06033,11.7007407 254.550639,12.3081481 C255.037959,12.9155556 255.402701,13.5555556 255.641876,14.2311111 C255.881052,14.9037037 256.000639,15.6177778 256.000639,16.3674074 C256.000639,18.1214815 255.357856,19.6177778 254.069299,20.8562963 C252.780742,22.0918519 251.223113,22.7111111 249.393423,22.7111111 C247.611567,22.7111111 246.036,22.2281481 244.669711,21.2592593 C243.303423,20.2933333 242.251052,18.8444444 241.515588,16.9096296 L244.427546,16.0977778 C245.485897,18.4740741 247.109299,19.6622222 249.294763,19.6622222 C250.353113,19.6622222 251.235072,19.3481481 251.937649,18.72 C252.640227,18.0918519 252.990021,17.2977778 252.990021,16.3407407 C252.990021,15.7659259 252.807649,15.1911111 252.439918,14.6103704 C252.069196,14.0325926 251.611773,13.5555556 251.06466,13.1822222 C250.517546,12.8088889 249.647546,12.3762963 248.45466,11.8933333 C247.261773,11.4074074 246.343938,10.962963 245.698165,10.56 C245.058371,10.157037 244.499299,9.67703704 244.029918,9.12 C243.560536,8.56296296 243.216722,8.00592593 242.998474,7.45481481 C242.780227,6.9037037 242.669608,6.31111111 242.669608,5.68296296 C242.669608,4.16888889 243.282495,2.88 244.511258,1.81333333 C245.737031,0.74962963 247.225897,0.216296296 248.977856,0.216296296 C250.134866,0.216296296 251.312804,0.465185185 252.505691,0.96 C253.698577,1.45777778 254.691155,2.2162963 255.483423,3.23259259" id="Fill-34" fill="#9C760E"></path>
                <polygon id="Fill-36" fill="#9C760E" points="285.127701 0.877925926 285.127701 8.99940741 274.941825 8.99940741 274.941825 0.877925926 272.032856 0.877925926 272.032856 21.9979259 274.941825 21.9979259 274.941825 11.8527407 285.127701 11.8527407 285.127701 21.9979259 288.003784 21.9979259 288.003784 0.877925926"></polygon>
                <path d="M91.3736186,49.4488889 L94.8566082,41.6474074 C94.8805258,41.602963 94.9373299,41.5703704 94.994134,41.5703704 L95.0270206,41.5703704 C95.0838247,41.5703704 95.1406289,41.5822222 95.1735155,41.6474074 L98.6236186,49.4488889 C98.6445464,49.517037 98.6445464,49.5822222 98.5219691,49.5822222 L98.2259897,49.5822222 C98.1482577,49.5822222 98.0914536,49.5288889 98.0675361,49.4814815 L97.1526907,47.4192593 L92.8325876,47.4192593 L91.9267113,49.4814815 C91.9057835,49.5288889 91.8489794,49.5822222 91.7682577,49.5822222 L91.4543402,49.5822222 C91.3736186,49.5822222 91.340732,49.5377778 91.3736186,49.4488889 L91.3736186,49.4488889 Z M96.9613505,46.9837037 L95.0270206,42.4651852 L95.0031031,42.4651852 L93.0358866,46.9837037 L96.9613505,46.9837037 Z" id="Fill-1" fill="#142937"></path>
                <path d="M105.611722,41.704 C105.62368,41.6595556 105.668526,41.624 105.713371,41.624 L105.838938,41.624 C105.895742,41.624 105.928629,41.6477037 105.952546,41.704 L108.281515,48.586963 L108.302443,48.586963 L110.643371,41.704 C110.667289,41.6477037 110.700175,41.624 110.756979,41.624 L110.882546,41.624 C110.927392,41.624 110.972237,41.6595556 110.984196,41.704 L112.58966,49.4373333 C112.613577,49.5499259 112.565742,49.5825185 112.464093,49.5825185 L112.195021,49.5825185 C112.126258,49.5825185 112.069454,49.5262222 112.057495,49.461037 L110.780897,42.8921481 L110.756979,42.8921481 L108.472856,49.6062222 C108.451928,49.6743704 108.383165,49.6951111 108.314402,49.6951111 L108.269557,49.6951111 C108.212753,49.6951111 108.14399,49.6832593 108.123062,49.6062222 L105.838938,42.8921481 L105.815021,42.8921481 L104.538423,49.461037 C104.526464,49.5262222 104.46966,49.5825185 104.400897,49.5825185 L104.128835,49.5825185 C104.027186,49.5825185 103.98234,49.5499259 104.006258,49.4373333 L105.611722,41.704 Z" id="Fill-3" fill="#142937"></path>
                <path d="M118.628835,48.5413333 L118.730485,48.405037 C118.811206,48.3161481 118.888938,48.2835556 118.978629,48.3605926 C119.092237,48.4613333 119.929351,49.2257778 121.071412,49.2257778 C122.099866,49.2257778 122.972856,48.5413333 122.972856,47.7235556 C122.972856,46.725037 122.144711,46.2776296 120.778423,45.8154074 C119.465948,45.3591111 118.595948,44.8968889 118.595948,43.608 C118.595948,42.7694815 119.274608,41.6257778 121.038526,41.6257778 C122.15667,41.6257778 122.981825,42.1976296 122.981825,42.1976296 C123.02667,42.2302222 123.107392,42.3072593 123.02667,42.4317037 C122.993784,42.4761481 122.960897,42.5324444 122.936979,42.5798519 C122.871206,42.6687407 122.802443,42.7013333 122.688835,42.6331852 C122.655948,42.6124444 121.896567,42.1057778 121.026567,42.1057778 C119.636361,42.1057778 119.116155,42.9591111 119.116155,43.5961481 C119.116155,44.5502222 119.851619,44.965037 120.99368,45.3354074 C122.54234,45.8628148 123.525948,46.3991111 123.525948,47.6998519 C123.525948,48.8228148 122.359969,49.6939259 121.059454,49.6939259 C119.714093,49.6939259 118.811206,48.9117037 118.661722,48.7754074 C118.595948,48.7191111 118.539144,48.6657778 118.628835,48.5413333" id="Fill-5" fill="#142937"></path>
                <path d="M131.193309,42.2195556 L129.031763,42.2195556 C128.921144,42.2195556 128.885268,42.1514074 128.885268,42.0506667 L128.885268,41.8817778 C128.885268,41.7928889 128.954031,41.7365926 129.031763,41.7365926 L133.89599,41.7365926 C133.98568,41.7365926 134.042485,41.8047407 134.042485,41.8817778 L134.042485,42.0743704 C134.042485,42.1514074 133.98568,42.2195556 133.89599,42.2195556 L131.725474,42.2195556 L131.725474,49.4373333 C131.725474,49.5173333 131.656711,49.5825185 131.543103,49.5825185 L131.339804,49.5825185 C131.262072,49.5825185 131.193309,49.5173333 131.193309,49.4373333 L131.193309,42.2195556 Z" id="Fill-7" fill="#142937"></path>
                <path d="M140.082258,41.8826667 C140.082258,41.8026667 140.151021,41.7374815 140.228753,41.7374815 L144.764113,41.7374815 C144.841845,41.7374815 144.910608,41.8026667 144.910608,41.8826667 L144.910608,42.0752593 C144.910608,42.1522963 144.841845,42.2204444 144.764113,42.2204444 L140.626381,42.2204444 L140.626381,45.3137778 L144.211021,45.3137778 C144.288753,45.3137778 144.357515,45.378963 144.357515,45.458963 L144.357515,45.6485926 C144.357515,45.7285926 144.288753,45.7937778 144.211021,45.7937778 L140.626381,45.7937778 L140.626381,49.1122963 L144.764113,49.1122963 C144.841845,49.1122963 144.910608,49.1804444 144.910608,49.2574815 L144.910608,49.4382222 C144.910608,49.5152593 144.841845,49.5834074 144.764113,49.5834074 L140.228753,49.5834074 C140.151021,49.5834074 140.082258,49.5152593 140.082258,49.4382222 L140.082258,41.8826667 Z" id="Fill-9" fill="#142937"></path>
                <path d="M151.594361,41.8826667 C151.594361,41.8026667 151.651165,41.7374815 151.740856,41.7374815 L154.548175,41.7374815 C155.926423,41.7374815 157.068485,42.7685926 157.068485,44.1345185 C157.068485,45.2663704 156.276216,46.176 155.202918,46.4782222 L156.853227,49.3819259 C156.910031,49.4708148 156.886113,49.5834074 156.775495,49.5834074 L156.422711,49.5834074 C156.344979,49.5834074 156.300134,49.5478519 156.264258,49.4826667 L154.625907,46.5463704 C154.479412,46.5552593 154.353845,46.5552593 154.207351,46.5552593 L152.126526,46.5552593 L152.126526,49.4382222 C152.126526,49.5152593 152.057763,49.5834074 151.947144,49.5834074 L151.740856,49.5834074 C151.663124,49.5834074 151.594361,49.5152593 151.594361,49.4382222 L151.594361,41.8826667 Z M154.524258,46.0871111 C155.609515,46.0871111 156.524361,45.2456296 156.524361,44.1345185 C156.524361,43.0708148 155.609515,42.253037 154.512299,42.253037 L152.138485,42.253037 L152.138485,46.0871111 L154.524258,46.0871111 Z" id="Fill-11" fill="#142937"></path>
                <path d="M163.695732,41.8826667 C163.695732,41.8026667 163.764495,41.7374815 163.833258,41.7374815 L166.228,41.7374815 C168.422433,41.7374815 170.210268,43.4974815 170.210268,45.6485926 C170.210268,47.8352593 168.422433,49.5834074 166.228,49.5834074 L163.833258,49.5834074 C163.764495,49.5834074 163.695732,49.5152593 163.695732,49.4382222 L163.695732,41.8826667 Z M166.138309,49.1004444 C168.117485,49.1004444 169.645216,47.6100741 169.645216,45.6485926 C169.645216,43.7108148 168.117485,42.2204444 166.138309,42.2204444 L164.227897,42.2204444 L164.227897,49.1004444 L166.138309,49.1004444 Z" id="Fill-13" fill="#142937"></path>
                <path d="M175.615629,49.4488889 L179.098619,41.6474074 C179.122536,41.602963 179.17934,41.5703704 179.233155,41.5703704 L179.269031,41.5703704 C179.325835,41.5703704 179.382639,41.5822222 179.415526,41.6474074 L182.865629,49.4488889 C182.886557,49.517037 182.886557,49.5822222 182.763979,49.5822222 L182.468,49.5822222 C182.390268,49.5822222 182.333464,49.5288889 182.312536,49.4814815 L181.394701,47.4192593 L177.074598,47.4192593 L176.168722,49.4814815 C176.147794,49.5288889 176.09099,49.5822222 176.013258,49.5822222 L175.696351,49.5822222 C175.615629,49.5822222 175.582742,49.5377778 175.615629,49.4488889 L175.615629,49.4488889 Z M181.203361,46.9837037 L179.269031,42.4651852 L179.245113,42.4651852 L177.277897,46.9837037 L181.203361,46.9837037 Z" id="Fill-15" fill="#142937"></path>
                <path d="M189.853732,41.704 C189.865691,41.6595556 189.910536,41.624 189.955381,41.624 L190.080948,41.624 C190.137753,41.624 190.170639,41.6477037 190.191567,41.704 L192.523526,48.586963 L192.544454,48.586963 L194.885381,41.704 C194.909299,41.6477037 194.942186,41.624 194.99899,41.624 L195.124557,41.624 C195.169402,41.624 195.214247,41.6595556 195.226206,41.704 L196.83167,49.4373333 C196.852598,49.5499259 196.807753,49.5825185 196.706103,49.5825185 L196.437031,49.5825185 C196.368268,49.5825185 196.311464,49.5262222 196.299505,49.461037 L195.022907,42.8921481 L194.99899,42.8921481 L192.714866,49.6062222 C192.693938,49.6743704 192.625175,49.6951111 192.556412,49.6951111 L192.511567,49.6951111 C192.454763,49.6951111 192.386,49.6832593 192.365072,49.6062222 L190.080948,42.8921481 L190.057031,42.8921481 L188.780433,49.461037 C188.768474,49.5262222 188.71167,49.5825185 188.642907,49.5825185 L188.370845,49.5825185 C188.269196,49.5825185 188.224351,49.5499259 188.248268,49.4373333 L189.853732,41.704 Z" id="Fill-17" fill="#142937"></path>
            </g>
        </g>
    </g>
</svg>