<?xml version="1.0" encoding="UTF-8" standalone="no"?>
<svg
   xmlns:dc="http://purl.org/dc/elements/1.1/"
   xmlns:cc="http://creativecommons.org/ns#"
   xmlns:rdf="http://www.w3.org/1999/02/22-rdf-syntax-ns#"
   xmlns:svg="http://www.w3.org/2000/svg"
   xmlns="http://www.w3.org/2000/svg"
   id="svg8"
   version="1.1"
   viewBox="0 0 76.174255 45.123524"
   height="45.123524mm"
   width="76.174255mm">
  <defs
     id="defs2" />
  <metadata
     id="metadata5">
    <rdf:RDF>
      <cc:Work
         rdf:about="">
        <dc:format>image/svg+xml</dc:format>
        <dc:type
           rdf:resource="http://purl.org/dc/dcmitype/StillImage" />
        <dc:title></dc:title>
      </cc:Work>
    </rdf:RDF>
  </metadata>
  <g
     transform="translate(-48.847397,-111.90848)"
     id="layer1">
    <g
       transform="matrix(0.26458333,0,0,0.26458333,11.938459,60.182434)"
       id="g4636">
      <g
         id="g4598">
	<path
   style="fill:#ffffff"
   class="st0"
   d="m 229.1,327.1 c -0.4,-2.1 -1.3,-2.9 -2.7,-2.9 -1.9,0 -3.1,1.5 -3.1,5.4 0,3.9 1.2,5.4 3.3,5.4 1.9,0 2.7,-1.4 2.7,-3.6 h -3.8 v -2.2 h 6.5 v 1.9 c 0,3.7 -1.7,6.1 -5.3,6.1 -3.6,0 -5.9,-2.4 -5.9,-7.6 0,-4.6 2.2,-7.6 5.9,-7.6 3.2,0 5.1,2.3 5.2,5.2 h -2.8 z"
   id="path4580" />

	<path
   style="fill:#ffffff"
   class="st0"
   d="m 240.8,322.1 h 2.3 l 4.8,14.7 h -2.7 l -1.3,-3.9 H 240 l -1.3,3.9 H 236 Z m 1.2,3.8 v 0 l -1.4,4.8 h 2.7 z"
   id="path4582" />

	<path
   style="fill:#ffffff"
   class="st0"
   d="m 254.2,332.3 c 0.1,1.4 0.6,2.6 2.3,2.6 1.2,0 2.1,-0.9 2.1,-2.1 0,-3.5 -6.6,-1.2 -6.6,-6.9 0,-2.4 1.9,-4 4.4,-4 2.8,0 4.2,1.8 4.4,4.3 h -2.4 c -0.1,-1.1 -0.8,-2.1 -2,-2.1 -1.2,0 -1.8,0.8 -1.8,1.9 0,3.1 6.6,1 6.6,6.6 0,2.7 -1.8,4.5 -4.7,4.5 -3,0 -4.6,-2.1 -4.7,-4.8 z"
   id="path4584" />

	<path
   style="fill:#ffffff"
   class="st0"
   d="m 265.3,324.5 v -2.4 h 8.9 v 2.4 h -3.1 v 12.4 h -2.6 v -12.4 z"
   id="path4586" />

	<path
   style="fill:#ffffff"
   class="st0"
   d="m 279.1,336.8 v -14.7 h 4.6 c 3.4,0 4.8,2.3 4.8,4.7 0,2.2 -1.2,3.9 -3.5,4.2 l 4.3,5.9 h -3.1 l -4.4,-6.5 v 0 6.5 h -2.7 z m 2.6,-7.8 h 1.5 c 1.6,0 2.6,-0.5 2.6,-2.2 0,-2 -1.2,-2.5 -2.8,-2.5 h -1.4 v 4.7 z"
   id="path4588" />

	<path
   style="fill:#ffffff"
   class="st0"
   d="m 304.9,329.5 c 0,4.7 -2.3,7.6 -5.7,7.6 -3.4,0 -5.7,-2.9 -5.7,-7.6 0,-4.7 2.3,-7.6 5.7,-7.6 3.4,0 5.7,2.9 5.7,7.6 z m -5.7,-5.4 c -1.6,0 -3.1,1.6 -3.1,5.4 0,3.8 1.4,5.4 3.1,5.4 1.6,0 3.1,-1.6 3.1,-5.4 0,-3.8 -1.5,-5.4 -3.1,-5.4 z"
   id="path4590" />

	<path
   style="fill:#ffffff"
   class="st0"
   d="m 319.6,336.8 v -14.7 h 4 c 3.8,0 5.5,2 5.5,4.7 0,2.7 -1.8,4.6 -4.8,4.6 h -2.2 v 5.5 h -2.5 z m 2.6,-7.7 h 1.9 c 1.7,0 2.4,-1.1 2.4,-2.4 0,-1.3 -0.7,-2.4 -2.4,-2.4 h -1.9 z"
   id="path4592" />

	<path
   style="fill:#ffffff"
   class="st0"
   d="m 337.1,322.1 v 10.1 c 0,1.7 0.7,2.5 2.5,2.5 1.8,0 2.5,-0.8 2.5,-2.5 v -10.1 h 2.6 v 10.8 c 0,2.2 -1.6,4.2 -5.1,4.2 -3.5,0 -5.1,-2 -5.1,-4.2 v -10.8 z"
   id="path4594" />

	<path
   style="fill:#ffffff"
   class="st0"
   d="m 350.7,322.1 h 4.4 c 2.6,0.1 4.5,1.4 4.5,4.1 0,1.2 -0.8,2.6 -2.1,2.7 v 0 c 1.9,0.4 2.7,1.8 2.7,3.6 0,2.6 -1.8,4.3 -4.2,4.3 h -5.3 z m 2.6,5.9 h 1.4 c 1.6,0 2.2,-0.7 2.2,-1.8 0,-1.2 -0.8,-1.8 -2.2,-1.8 h -1.4 z m 0,6.6 h 1.4 c 2.2,0 2.8,-0.7 2.8,-2.2 0,-1.4 -0.9,-2.2 -2.9,-2.2 h -1.3 z"
   id="path4596" />

</g>
      <g
         id="g4610">
	<path
   style="fill:#ffffff"
   class="st1"
   d="m 364.1,281.1 c 0.8,0 1.4,-0.6 1.8,-1.8 0.2,-0.8 0.4,-1.7 0.5,-2.6 0.1,-1 0,-1.9 -0.1,-2.7 -0.2,-1.1 -0.6,-1.6 -1.1,-1.8 0,-0.2 0,-0.4 0,-0.5 0,-1.6 -0.6,-3 -1.8,-4.2 -1.2,-1.2 -2.8,-1.8 -4.7,-1.8 -1,0 -2.2,0.1 -3.6,0.4 -1.4,0.3 -2.8,0.7 -4.3,1.2 -1.5,0.5 -2.9,1.2 -4.2,2.1 -1.3,0.9 -2.4,1.9 -3.3,3.1 -0.9,1.2 -1.4,2.7 -1.4,4.2 0,1.3 0.3,2.7 0.9,4 0.5,1.1 1.1,2.2 1.7,3.3 -1.4,1.3 -2.7,2.6 -3.9,3.9 -1.4,1.5 -2.5,3.1 -3.3,4.6 -0.9,1.6 -1.3,3.1 -1.3,4.6 0,2.1 0.4,3.9 1.1,5.5 0.7,1.6 1.6,2.9 2.8,4 1.1,1.1 2.4,1.9 3.8,2.4 1.4,0.5 2.7,0.8 4.1,0.8 0.1,0 0.2,0 0.4,0 0.3,0 0.6,0 0.9,0 0.3,0 0.7,0 1.1,0 0.8,0 1.7,-0.2 2.6,-0.5 1,-0.3 1.9,-0.8 2.7,-1.5 0.9,-0.7 1.6,-1.8 2.1,-3.1 0.5,-1.3 0.8,-2.9 0.8,-4.9 0,-1.5 -0.3,-3.1 -1,-4.7 -0.6,-1.5 -1.4,-3 -2.3,-4.5 -0.7,-1.2 -1.5,-2.3 -2.3,-3.4 2.4,-1.7 4.7,-3.2 6.9,-4.4 3.3,-1.5 4.2,-1.7 4.4,-1.7 z m -11.9,21.4 c -0.4,0.9 -1,1.6 -1.7,2 -1.6,1 -3.7,0.8 -5.6,0.1 -1,-0.4 -1.8,-1 -2.4,-1.8 -0.6,-0.8 -0.9,-1.9 -0.9,-3.3 0,-0.7 0.3,-1.5 1,-2.5 0.8,-1.1 1.8,-2.3 3,-3.5 1,-1 2.2,-2 3.5,-3 0.6,0.8 1.1,1.7 1.6,2.5 0.7,1.1 1.2,2.1 1.6,3.1 0.4,0.9 0.6,1.8 0.6,2.7 0,1.4 -0.2,2.7 -0.7,3.7 z m -3.6,-21.7 c -0.2,-0.5 -0.5,-1 -0.6,-1.4 -0.3,-0.7 -0.4,-1.3 -0.4,-1.9 0,-0.8 0.5,-1.7 1.4,-2.7 1,-1.1 2.3,-2 3.9,-2.8 1.6,-0.8 3.3,-1.1 5,-1.1 1.9,0 2.6,0.3 2.7,0.4 0.3,0.2 0.5,0.4 0.5,0.6 0,0.4 0,0.8 -0.1,1.1 0,0.1 0,0.2 -0.1,0.3 -3.4,1.4 -7.6,3.9 -12.3,7.5 z"
   id="path4600" />

	<path
   style="fill:#ffffff"
   class="st1"
   d="m 276.9,272.4 c 1.1,0.7 2.3,0.9 3.6,0.7 1.2,-0.3 2.1,-0.9 2.7,-2 0.6,-1 0.7,-2.2 0.3,-3.5 -0.4,-1.3 -1.2,-2.3 -2.3,-3 -1.1,-0.7 -2.2,-0.9 -3.5,-0.6 -1.3,0.2 -2.2,0.9 -2.7,1.9 -0.6,1 -0.7,2.2 -0.4,3.4 0.4,1.3 1.2,2.3 2.3,3.1 z"
   id="path4602" />

	<path
   style="fill:#ffffff"
   class="st1"
   d="m 319.3,289.6 c -3.9,16.5 -12.3,24.4 -11.9,20.7 0.8,-7.2 2.9,-16.9 2.9,-21.6 0,-4.7 -1.4,-7.6 -4.3,-8.9 -2.9,-1.2 -5.3,-1.4 -7.2,-0.6 -1.9,0.9 -3.6,5.3 -5,13.4 1.1,-10.3 -0.8,-15 -5.7,-14.1 0,5.7 0,9.9 0,12.7 -2.8,6 -4.9,10.4 -6.5,13.2 -1.9,3.4 -2.7,3.2 -2.4,-0.6 0.3,-3.8 0.7,-7.6 1.2,-11.2 0.5,-3.6 1.2,-8.5 2,-14.6 -1.9,-1.9 -4.6,-1.9 -8,-0.2 -0.6,7.4 -0.8,13.5 -0.6,18.3 0,0.6 0.1,1.2 0.1,1.8 -5.2,15.7 -10.4,16.4 -13.8,1.3 7.8,-8 9.9,-13.6 6.2,-15.5 -3.7,-1.9 -6.6,-2.4 -8.7,-1.6 -2.1,0.9 -3.9,3.6 -5.2,8.3 0.1,-2.2 0,-2.5 0.2,-8.4 2.5,-3.7 5.7,-10.6 7.4,-16.8 1.4,-5.9 1.7,-12 0.7,-18.2 -3.6,-3.4 -7.4,-4.2 -11.5,-2.3 -1.2,2.4 -2.1,5.3 -2.7,8.6 -0.6,3.3 -1,7.4 -1.4,12.1 -0.3,4.6 0.1,11.7 1.4,21.4 -1.2,2.3 -2.2,4 -3.4,4.6 -1.3,0.6 -1.8,0.6 -2.7,-0.1 1.9,-8.3 1.6,-13.2 -0.8,-18.1 -2.4,-3.6 -4.9,-4.8 -7.6,-3.8 -0.8,0.3 -1.5,0.9 -2,1.6 -3.8,-2.1 -6.4,-1.4 -7.8,2.1 -3.3,11.6 -3.9,19.8 -1.9,24.6 1.7,3.6 4.1,5.7 7,6.4 2.9,0.7 5.3,0.3 7.3,-1.3 2,-1.6 3.4,-4.8 4.6,-7.7 1.5,0.7 2.7,0.5 4.6,-0.5 1,-0.5 2.1,-1.6 3.3,-3.3 0.2,1.9 0.4,3.4 0.4,4.5 0.4,2.5 0.8,5.8 1.2,10 0.5,5.3 1.9,7 4.4,5 l 0.3,-11.6 v 0 c 0,-0.4 0.1,-0.8 0.1,-1.2 3.4,11 9.1,17.2 11.4,17.9 2.4,0.7 4.7,-1 6.9,-5.2 0.9,-1.8 2,-4.1 3,-6.8 0.3,1 0.6,1.9 1,2.7 1.2,2.2 2.7,3 4.6,2.2 1.9,-0.8 3.9,-3 5.9,-6.8 0.5,-0.9 1,-1.8 1.5,-2.8 0,1.2 -0.1,2.5 -0.2,3.9 -0.7,4.8 1.3,6.5 6,4.9 l 1.3,-11.7 c 1.4,-5.7 2.8,-10.1 4.1,-13.5 1.3,-3.3 3.1,-2.3 3.4,3 0.3,5.3 -0.6,11.3 -0.9,18 -0.2,6.7 0.4,10.6 1.9,11.7 1.5,1.1 6.9,1.3 10.1,-3.4 3.4,-5.1 5.2,-9.7 6.4,-16.5 2.1,-9.1 -0.5,-6.6 -0.6,-6 z m -86.5,10.3 c -2,1.4 -3.3,1.1 -4.5,-0.8 -1.4,-2.3 -1.6,-4.2 -1.4,-6.6 0.1,-2.1 0.8,-7.1 2.5,-15.2 0.1,0.8 0.1,1.6 0.3,2.6 1.2,6.5 3.6,11.4 7,14.6 -0.7,2.2 -2,4 -3.9,5.4 z m 5.3,-9.7 c -2.4,-2.2 -3.4,-4.6 -4.1,-7.2 -0.7,-2.6 -0.7,-4.9 0,-7 0.7,-2.1 1.7,-0.9 2.9,3.5 1.2,4.4 1.7,7.7 1.2,10.7 z m 15.8,-28.9 c 0.8,-3.7 1.6,-7.1 2.4,-10.3 0.8,-3.1 1.2,-4.6 1.5,-2.4 0.9,11.1 -5.2,26.1 -5.2,26.1 0.1,-3.9 0.6,-9.8 1.3,-13.4 z m -0.1,36.9 c 0.5,-4.4 1.9,-8.7 4.4,-13.1 2.7,-4.8 7.9,1.5 -4.4,13.1 z"
   id="path4604" />

	<path
   style="fill:#ffffff"
   class="st1"
   d="m 394.9,269 c -0.3,-0.2 -0.8,-0.4 -1.5,-0.3 -0.3,0.1 -1,0.2 -3.2,0.2 -1.7,0 -3.6,0 -5.7,0 -2.1,-0.1 -3.9,-0.2 -5.4,-0.3 -1.2,-0.1 -1.7,-0.3 -1.9,-0.3 -0.2,-0.4 -0.6,-0.5 -0.8,-0.6 -0.2,-0.1 -0.7,-0.1 -1.2,0.4 -0.3,0.3 -0.6,0.7 -0.9,1.3 -0.3,0.5 -0.5,1.1 -0.7,1.6 l -0.4,0.8 c -0.7,1.4 -1.5,3 -2.4,4.8 -0.9,1.8 -1.7,3.5 -2.4,5.1 -1,2.2 -1.1,3 -1.1,3.4 0,0.5 0.3,1.1 0.9,1.8 0.5,0.5 1,1 1.6,1.4 0.7,0.5 1.3,0.7 1.8,0.7 h 0.8 c 0.8,0 1.7,0 2.7,0 1,0 2.1,0.1 3.1,0.1 1,0.1 1.8,0.2 2.5,0.4 0.2,0.1 0.3,0.1 0.4,0.1 -0.1,0.3 -0.3,0.9 -1.2,2.1 -0.9,1.2 -2.1,2.5 -3.5,3.9 -1.5,1.4 -3.1,2.8 -4.9,4 -1.8,1.3 -3.5,2.3 -5.3,3.1 -1.7,0.8 -3.2,1.2 -4.6,1.2 -0.6,0 -1.1,0.2 -1.4,0.5 -0.2,0.2 -0.4,0.6 -0.4,1.1 0,0.6 0.3,1.3 0.7,2 0.4,0.6 1,1.2 1.6,1.7 0.7,0.5 1.5,0.8 2.3,0.8 1.5,0 3.3,-0.4 5.1,-1.2 1.8,-0.8 3.6,-1.8 5.4,-3.1 1.8,-1.3 3.5,-2.7 5.2,-4.2 1.7,-1.5 3.2,-3 4.5,-4.5 1.3,-1.5 2.4,-2.9 3.2,-4.1 0.9,-1.4 1.3,-2.4 1.3,-3.2 0,-0.7 -0.3,-1.5 -0.8,-2.2 -0.5,-0.7 -1.1,-1.3 -1.8,-1.8 -0.8,-0.5 -1.6,-0.8 -2.4,-0.8 -0.4,0 -5.3,-0.4 -7.9,-0.6 -0.9,-0.1 -1.6,-0.1 -2.2,-0.2 0.1,-0.1 0.1,-0.3 0.2,-0.4 l 4.6,-8.3 c 0.4,0.1 0.6,0.1 1.3,0.2 0.3,0 0.6,0 1.1,0.1 2.2,0.1 4.4,0.1 6.5,0.1 2.2,-0.1 3.8,-0.3 5,-0.6 0.9,-0.3 1.6,-1 2.1,-2 0.5,-0.9 0.7,-1.8 0.6,-2.6 0.1,-0.9 -0.2,-1.3 -0.5,-1.6 z"
   id="path4606" />

	<path
   style="fill:#ffffff"
   class="st1"
   d="m 411,259.4 c -14.1,-10.9 -36,-18.6 -62.1,-22.3 -2.8,-0.5 -5.7,-1.1 -8.5,-1.8 -7.2,-1.9 -11.8,-6.6 -13.4,-14 -0.8,-3.5 -1.3,-7.2 -1.6,-10.8 -0.4,-5 -0.5,-10 -0.7,-15 -0.5,2.3 -0.6,4.5 -1,6.8 -1.2,6.4 -2.1,12.9 -3.8,19.2 -1.3,5 -4.6,8.9 -9.7,10.8 -2.6,1 -5.4,1.9 -8.1,2.2 -0.8,0.1 -1.5,0.1 -2.3,0.2 -5.7,0.2 -11.4,0.5 -17.2,1 -24.2,2.1 -47,6.8 -66.9,13.3 -4.2,-3.9 -9.7,-6.5 -16.4,-7.6 -9.7,-1.7 -14.1,-0.6 -13.2,3.2 0.9,3.8 2.5,5.8 4.7,5.8 2.2,0.1 2.7,-1.1 1.4,-3.5 -1.3,-2.4 0.7,-2.2 6.2,0.7 4.3,2.3 8.1,5.3 11.2,8.8 l -0.1,0.1 c 2.8,3.2 4,7.3 3.3,12.2 -1,5.5 -4.1,9.7 -9.3,12.4 V 281 l -0.1,0.2 c -2.8,1.4 -5.8,2.4 -9.2,3.1 0.1,-9.5 0.2,-19.7 0.4,-30.5 -1.9,-2.7 -4.5,-3 -7.9,-0.8 -0.3,2.7 -0.5,5.4 -0.6,8 -28.8,14.3 -46.8,33 -46.6,51.8 0.1,10.4 5.8,20.2 16.3,28.3 17.7,13.7 47.4,22.2 82.4,24.4 14.6,0.9 30,0.7 45.9,-0.7 79.3,-7 143.6,-41.6 143.3,-77.2 v 0 c -0.2,-10.2 -5.8,-20 -16.4,-28.2 z m -124.7,99.9 c -53.6,4.7 -89.6,-4.6 -117,-22.2 -9.4,-6.1 -19.3,-20.3 -15.2,-36.9 2.9,-11.5 13.6,-24.1 31.7,-35 -0.4,6.7 -0.5,13.1 -0.3,19 0.2,9.4 0.5,36.2 0.7,48.3 3.3,4.2 5.7,4.1 7.3,-0.2 0.7,-9.5 0.9,-34.9 0.6,-44 l 6,-1.1 c 7.3,10.8 12.3,17.9 15.1,21.5 2.8,3.6 5,6.4 6.9,8.6 1.8,2.2 3.3,2.5 4.4,1 1.1,-1.5 0.7,-3.3 -1.3,-5.3 -2,-2 -3.9,-4.5 -5.9,-7.4 -2,-3 -6.5,-9.8 -13.6,-20.6 5.8,-2.8 10.3,-6.7 13.6,-11.7 3.5,-7.1 3.9,-13.1 1.4,-18.1 -1,-1.6 -2.1,-3.1 -3.3,-4.5 18.1,-6.3 40,-11 65.5,-13.3 2.6,-0.2 5.3,-0.4 7.9,-0.6 4.7,0 8.2,0.3 11.1,1 2.9,0.7 5.3,1.5 6.8,2.4 6.3,3.2 9.4,8 10.4,15.2 1.1,7.5 1.4,15.2 2,22.8 0.1,0 0.3,0 0.4,0 0.2,-1.4 0.3,-2.7 0.6,-4.1 1.2,-6.6 2.1,-13.3 3.8,-19.8 1.8,-6.9 6.8,-11.2 13.8,-12.5 4.9,-0.9 11.1,-2 18.8,-1.5 21.3,4.1 39.2,11 51.3,20.3 10.3,8 15.6,17.1 15.7,27.1 0.2,34.8 -60.9,64.7 -139.2,71.6 z"
   id="path4608" />

</g>
    </g>
  </g>
  <style
     type="text/css"
     id="style4578">
	.st0{fill:#fff;}
	.st1{fill:#fff;}
</style>
</svg>
